<svg id="Capa_1" enable-background="new 0 0 512 512" height="512" viewBox="0 0 512 512" width="512" xmlns="http://www.w3.org/2000/svg"><g><path d="m23.52 202.857 33.591-33.591c9.655-9.655 25.31-9.655 34.965 0l42.978 42.978c9.655 9.655 9.655 25.31 0 34.966l-29.811 29.811c-2.373 2.373-3.444 5.746-2.866 9.052 2.851 16.306 11.84 51.024 42.147 81.33 8.659 8.659 36.536 34.436 81.402 42.164 3.278.565 6.628-.53 8.979-2.882l29.813-29.813c9.655-9.655 25.31-9.655 34.966 0l42.978 42.978c9.655 9.655 9.655 25.31 0 34.965l-33.591 33.591c-21.727 21.727-53.992 29.213-82.984 19.036-38.595-13.548-89.415-38.627-136.196-85.408s-71.86-97.601-85.408-136.196c-10.177-28.989-2.69-61.254 19.037-82.981z" fill="#b3e59f"/><g fill="#95d6a4"><path d="m225.927 409.568c-44.866-7.729-72.743-33.506-81.402-42.164-30.307-30.307-39.296-65.025-42.147-81.33-.578-3.306.493-6.679 2.866-9.052l29.812-29.811c9.655-9.655 9.655-25.31 0-34.965l-42.979-42.978c-8.974-8.974-23.122-9.595-32.828-1.888 2.456 2.504 42.462 42.428 44.901 44.867 9.655 9.655 9.655 25.31 0 34.965l-29.812 29.811c-2.373 2.373-3.444 5.746-2.866 9.052 2.852 16.305 11.84 51.024 42.147 81.33 10.968 10.968 38.699 36.856 81.402 42.164 12.759 1.585 23.529.904 30.906-.001z"/><path d="m342.663 419.852-42.979-42.978c-9.006-9.006-23.227-9.604-32.935-1.809.7.562 1.381 1.16 2.03 1.809l42.979 42.978c9.655 9.655 9.655 25.31 0 34.965l-33.592 33.592c-11.477 11.477-25.896 18.976-41.218 22.001 25.937 5.144 53.079-2.957 72.124-22.001l33.592-33.592c9.654-9.656 9.654-25.31-.001-34.965z"/></g><path d="m474.145 220.561c50.946-50.946 50.468-133.843-1.433-184.19-50.14-48.638-130.711-48.36-180.532.605-42.02 41.298-49.787 104.1-23.313 153.355.816 1.518.994 3.298.447 4.933l-19.877 59.403c-1.618 4.836 2.987 9.441 7.823 7.823l59.401-19.876c1.636-.547 3.417-.369 4.937.448 48.936 26.301 111.242 18.805 152.547-22.501z" fill="#e5979d"/><g><path d="m472.712 36.371c-28.924-28.058-67.976-39.835-105.409-35.38 27.176 3.229 53.508 15.013 74.504 35.38 51.901 50.347 52.379 133.243 1.433 184.19-21.297 21.297-48.18 33.581-75.932 36.904 38.016 4.554 77.663-7.73 106.838-36.904 50.946-50.946 50.468-133.843-1.434-184.19z" fill="#e17f85"/></g><path d="m443.835 111.734h-40.117c-1.927 0-3.488-1.562-3.488-3.488v-40.117c0-3.853-3.124-6.977-6.977-6.977h-20.931c-3.853 0-6.977 3.124-6.977 6.977v40.117c0 1.927-1.562 3.488-3.488 3.488h-40.117c-3.853 0-6.977 3.124-6.977 6.977v20.931c0 3.853 3.124 6.977 6.977 6.977h40.117c1.927 0 3.488 1.562 3.488 3.488v40.117c0 3.853 3.124 6.977 6.977 6.977h20.931c3.853 0 6.977-3.124 6.977-6.977v-40.117c0-1.927 1.562-3.488 3.488-3.488h40.117c3.853 0 6.977-3.124 6.977-6.977v-20.931c0-3.853-3.124-6.977-6.977-6.977z" fill="#fff"/></g></svg>