<svg id="Capa_1" enable-background="new 0 0 501.762 501.762" height="512" viewBox="0 0 501.762 501.762" width="512" xmlns="http://www.w3.org/2000/svg"><g><g fill="#e1d3ce"><path d="m37.923 40.572c-4.142 0-7.5 3.688-7.5 8.237v114.902c0 4.549 3.358 8.237 7.5 8.237s7.5-3.688 7.5-8.237v-114.902c0-4.549-3.358-8.237-7.5-8.237z"/><path d="m222.53 173.947c4.142 0 7.5-3.808 7.5-8.504v-116.367c0-4.697-3.358-8.504-7.5-8.504s-7.5 3.808-7.5 8.504v116.367c0 4.697 3.358 8.504 7.5 8.504z"/><path d="m375.113 83.69c-32.247 0-58.482 26.235-58.482 58.481v66.079 163.01 26.051c0 49.324-40.128 89.452-89.452 89.452s-89.452-40.128-89.452-89.452v-109.64c0-4.142-3.358-7.5-7.5-7.5s-7.5 3.358-7.5 7.5v109.64c0 57.595 46.857 104.452 104.452 104.452s104.451-46.858 104.451-104.452v-26.051-163.01-66.079c0-23.976 19.506-43.481 43.482-43.481s43.481 19.506 43.481 43.481v34.991c0 4.142 3.357 7.5 7.5 7.5s7.5-3.358 7.5-7.5v-34.991c.001-32.246-26.233-58.481-58.48-58.481z"/></g><path d="m130.227 287.671c-60.271 0-109.304-49.034-109.304-109.304 0-9.389 7.611-17 17-17s17 7.611 17 17c0 41.522 33.781 75.304 75.304 75.304s75.304-33.781 75.304-75.304c0-9.389 7.611-17 17-17s17 7.611 17 17c0 60.27-49.034 109.304-109.304 109.304z" fill="#b3dafe"/><path d="m222.53 161.367c-6.497 0-12.138 3.648-15 9.004 1.274 2.384 2 5.104 2 7.996 0 55.182-41.106 100.936-94.304 108.27 4.906.676 9.911 1.034 15 1.034 60.271 0 109.304-49.034 109.304-109.304.001-9.388-7.611-17-17-17z" fill="#8ac9fe"/><circle cx="427.051" cy="231.492" fill="#fee97d" r="53.788"/><path d="m427.051 177.703c-5.208 0-10.237.755-15 2.136 22.404 6.496 38.788 27.154 38.788 51.653 0 24.498-16.384 45.157-38.788 51.653 4.763 1.381 9.792 2.136 15 2.136 29.707 0 53.788-24.082 53.788-53.788s-24.081-53.79-53.788-53.79z" fill="#fedf30"/><circle cx="427.051" cy="231.492" fill="#fed402" r="20.046"/><path d="m54.05 52.619h-32.127v-36.556c0-8.871 7.192-16.063 16.063-16.063 8.872 0 16.064 7.192 16.064 16.063z" fill="#b3dafe"/><path d="m238.594 52.619h-32.127v-36.556c0-8.871 7.192-16.063 16.063-16.063 8.872 0 16.063 7.192 16.063 16.063v36.556z" fill="#b3dafe"/></g></svg>