<?xml version="1.0" encoding="iso-8859-1"?>
<!-- Generator: Adobe Illustrator 19.0.0, SVG Export Plug-In . SVG Version: 6.00 Build 0)  -->
<svg version="1.1" id="Capa_1" xmlns="http://www.w3.org/2000/svg" xmlns:xlink="http://www.w3.org/1999/xlink" x="0px" y="0px"
	 viewBox="0 0 512 512" style="enable-background:new 0 0 512 512;" xml:space="preserve">
<path style="fill:#E36F91;" d="M417.146,37.426c-49.853-49.852-130.971-49.853-180.824,0L37.453,236.296
	C13.345,260.405,0.044,292.51,0,326.718c0.043,34.187,13.344,66.293,37.453,90.402c24.146,24.146,56.255,37.443,90.411,37.443
	c34.157,0,66.266-13.298,90.412-37.443l198.871-198.871C467,168.396,467,87.28,417.146,37.426z"/>
<path style="fill:#B04663;" d="M417.147,37.427c36.147,36.148,24.997,106.114-24.856,155.968L193.42,392.264
	c-24.146,24.145-53.668,40.029-83.13,44.724c-29.461,4.695-55.329-2.361-72.837-19.869l0,0
	c24.146,24.146,56.255,37.443,90.411,37.443c34.157,0,66.266-13.298,90.412-37.443l198.871-198.871
	C467,168.396,467,87.28,417.147,37.427z"/>
<path style="fill:#7EBFE7;" d="M417.146,37.426c-49.853-49.852-130.971-49.853-180.824,0l-99.464,99.464l180.824,180.824
	l99.464-99.464C467,168.396,467,87.28,417.146,37.426z"/>
<path style="fill:#3E91D9;" d="M454.535,127.764c-0.006-10.079-1.196-20.157-3.564-30.006c-0.084-0.35-0.172-0.699-0.259-1.048
	c-2.184-8.761-5.299-17.334-9.357-25.558c-0.011-0.022-0.023-0.045-0.034-0.067c-1.378-2.788-2.863-5.537-4.457-8.239
	c-0.687-1.165-1.402-2.318-2.13-3.465c-0.771-1.217-1.567-2.423-2.383-3.619c-1.119-1.639-2.282-3.256-3.486-4.853
	c-1.761-2.335-3.61-4.624-5.553-6.86c-1.149-1.322-2.327-2.628-3.539-3.913c-0.861-0.913-1.734-1.819-2.627-2.712
	c36.146,36.148,24.996,106.114-24.857,155.967l-99.464,99.464l24.856,24.856l99.464-99.464c0.779-0.779,1.546-1.566,2.3-2.36
	c2.35-2.473,4.579-5.02,6.693-7.629c1.28-1.58,2.52-3.181,3.713-4.806c0.633-0.862,1.254-1.73,1.862-2.604
	c1.217-1.748,2.386-3.521,3.505-5.315c0.56-0.897,1.108-1.8,1.643-2.707c1.475-2.501,2.851-5.044,4.142-7.619
	c0.583-1.164,1.155-2.333,1.701-3.512c0.438-0.946,0.864-1.896,1.278-2.851c0.646-1.49,1.254-2.994,1.841-4.503
	c0.284-0.731,0.563-1.464,0.833-2.2c0.482-1.311,0.942-2.628,1.38-3.952c0.614-1.856,1.184-3.723,1.711-5.6
	c3.186-11.348,4.788-23.053,4.788-34.758C454.536,127.813,454.535,127.788,454.535,127.764z"/>
<path style="fill:#747693;" d="M465.221,416.676c-1.989,0-3.897,0.79-5.303,2.196l-41.009,41.01c-2.929,2.93-2.929,7.678,0,10.606
	l39.279,39.279c1.406,1.407,3.314,2.197,5.303,2.197s3.897-0.79,5.303-2.196l41.01-41.01c2.929-2.93,2.929-7.678,0-10.606
	l-39.28-39.28C469.117,417.466,467.21,416.676,465.221,416.676z"/>
<g>
	<path style="fill:#545777;" d="M470.523,418.872c-0.176-0.176-0.359-0.342-0.55-0.498
		C470.156,418.54,470.345,418.695,470.523,418.872z"/>
	<path style="fill:#545777;" d="M488.521,486.933c-1.492-0.497-3.12-1.567-4.527-2.974l-39.279-39.279
		c-2.929-2.93-4.116-6.491-2.652-7.956l17.853-17.854l-0.001,0.001l-41.009,41.01c-2.929,2.93-2.929,7.678,0,10.606l39.279,39.279
		c1.406,1.407,3.314,2.197,5.303,2.197s3.897-0.79,5.303-2.196l23.157-23.157C491.247,487.315,490.013,487.431,488.521,486.933z"/>
</g>
<path style="fill:#2B2F52;" d="M417.912,425.385c-1.92,0-3.84-0.732-5.305-2.198l-24.188-24.199
	c-2.928-2.93-2.927-7.678,0.002-10.605c2.93-2.929,7.678-2.928,10.606,0.003l24.188,24.199c2.928,2.93,2.927,7.678-0.003,10.606
	C421.75,424.653,419.831,425.385,417.912,425.385z"/>
<path style="fill:#E8C778;" d="M437.859,387.333l-50.485,50.484c-10.312,10.313-10.312,27.092,0,37.405
	c5.157,5.156,11.929,7.734,18.702,7.734c6.773,0,13.546-2.578,18.702-7.734l50.484-50.484v-0.001
	c4.996-4.996,7.747-11.637,7.747-18.702s-2.751-13.706-7.748-18.702C464.952,377.022,448.172,377.02,437.859,387.333z"/>
<g>
	<path style="fill:#D99A4A;" d="M476.476,388.639c-0.39-0.445-0.791-0.884-1.213-1.307
		C475.686,387.756,476.078,388.2,476.476,388.639z"/>
	<path style="fill:#D99A4A;" d="M425.824,463.208c-5.962-0.812-12.231-3.892-17.388-9.048c-10.311-10.311-12.322-25.079-4.485-32.92
		l-16.578,16.577c-10.312,10.313-10.312,27.092,0,37.405c5.157,5.156,11.929,7.734,18.702,7.734c6.773,0,13.546-2.578,18.702-7.734
		l16.58-16.58C437.438,462.563,431.786,464.019,425.824,463.208z"/>
</g>
<circle style="fill:#747693;" cx="289.544" cy="289.514" r="147.332"/>
<circle style="fill:#D0F0FE;" cx="289.544" cy="289.514" r="119.593"/>
<path style="fill:#A6D3E8;" d="M374.115,204.946c-1.485-1.484-3-2.92-4.541-4.31c29.383,46.246,23.929,108.253-16.427,148.61
	c-45.22,45.22-117.643,46.655-164.593,4.31c4.623,7.276,10.077,14.175,16.427,20.524c46.705,46.704,122.429,46.704,169.133,0
	C420.82,327.375,420.82,251.651,374.115,204.946z"/>
<path style="fill:#2B2F52;" d="M255.353,240.19c0-6.265,3.393-12.203,10.181-17.817c6.785-5.611,16.25-8.419,28.389-8.419
	c12.399,0,22.449,3.068,30.151,9.201c7.7,6.137,11.551,13.837,11.551,23.103c0,12.531-7.37,24.475-22.103,35.83
	c-3.408,2.741-5.929,5.452-7.56,8.126c-1.634,2.677-2.613,5.026-2.937,7.048c-0.327,2.026-0.49,5.124-0.49,9.299
	c0,5.354-3.851,8.028-11.551,8.028c-4.047,0-6.853-0.9-8.419-2.699c-1.566-1.798-2.35-5.206-2.35-10.223
	c0-12.084,4.372-21.855,13.117-29.313c0.392-0.385,2.086-1.734,5.091-4.048c3.002-2.313,5.091-4.05,6.266-5.206
	c1.174-1.157,2.478-2.925,3.916-5.305c1.435-2.38,2.154-4.791,2.154-7.233c0-4.243-1.628-7.488-4.879-9.74
	c-3.252-2.249-7.48-3.375-12.68-3.375c-4.424,0-8.064,0.722-10.924,2.166c-2.864,1.444-4.748,3.042-5.66,4.786
	c-0.911,1.746-2.147,3.34-3.708,4.784c-1.56,1.444-3.512,2.166-5.852,2.166c-2.992,0-5.69-0.978-8.095-2.937
	C256.554,246.455,255.353,243.713,255.353,240.19z M275.909,343.174c0-4.176,1.505-7.734,4.521-10.67
	c3.013-2.937,6.596-4.406,10.75-4.406c4.176,0,7.734,1.502,10.67,4.504c2.937,3.004,4.405,6.529,4.405,10.572
	c0,4.048-1.468,7.572-4.405,10.572c-2.937,3.004-6.495,4.503-10.67,4.503c-4.179,0-7.768-1.499-10.768-4.503
	C277.408,350.746,275.909,347.222,275.909,343.174z"/>
<g>
</g>
<g>
</g>
<g>
</g>
<g>
</g>
<g>
</g>
<g>
</g>
<g>
</g>
<g>
</g>
<g>
</g>
<g>
</g>
<g>
</g>
<g>
</g>
<g>
</g>
<g>
</g>
<g>
</g>
</svg>
