<svg id="Capa_1" enable-background="new 0 0 512.013 512.013" height="512" viewBox="0 0 512.013 512.013" width="512" xmlns="http://www.w3.org/2000/svg"><g><path d="m205.016 7.453c55.701 0 94.592 34.364 112.433 61.395l-19.495 110.407c-4.1-33.033-44.898-57.89-92.937-57.89s-88.837 24.857-92.937 57.89l-19.497-110.407c17.841-27.031 56.732-61.395 112.433-61.395z" fill="#eda1ab"/><path d="m205.016 7.453c-123.254 0-167.415 278.866 184.338 370.461 14.603 3.803 17.969 23.013 5.518 31.539l-26.347 18.043c-5.893 4.036-8.465 11.443-6.341 18.262l11.942 38.334c3.748 12.032-7.526 23.359-19.568 19.642-177.08-54.657-327.179-212.925-327.179-334.838 0-103.86 88.31-161.443 177.637-161.443z" fill="#f4c8d2"/><path d="m178.985 266.043c-25.351 20.206-55.998 37.874-91.282 52.613 37.116 49.022 88.997 95.466 148.919 131.685 26.053-19.09 50.274-40.04 72.331-62.621 8.689-8.895 16.894-17.905 24.629-27.007-69.614-25.131-119.926-58.479-154.597-94.67z" fill="#eda1ab"/><path d="m205.016 7.453c123.254 0 167.415 278.866-184.338 370.461-14.603 3.803-17.969 23.013-5.518 31.539l26.347 18.043c5.893 4.036 8.465 11.443 6.341 18.262l-11.942 38.334c-3.748 12.032 7.526 23.359 19.568 19.642 177.079-54.658 327.178-212.926 327.178-334.839.001-103.859-88.309-161.442-177.636-161.442z" fill="#f4c8d2"/><path d="m86.076 485.136c-10.867 4.219-21.908 8.065-32.814 11.432-6.287 1.941-12.15-3.97-10.195-10.245l11.942-38.333c3.123-10.025-.6-20.748-9.264-26.681l-26.347-18.043c-7.119-4.875-5.275-15.894 3.17-18.094 84.382-21.972 170.973-61.396 226.84-128.391 73.478-88.115 62.945-187.842 15.476-232.646 24.57 7.806 46.816 20.388 64.629 36.964 3.033 2.822 7.778 2.652 10.6-.381 2.821-3.032 2.651-7.778-.381-10.6-69.242-64.435-188.772-66.824-261.8-6.682-37.979 31.278-58.053 74.661-58.053 125.458 0 53.867 27.88 115.763 78.685 175.172-24.604 10.269-51.262 19.164-79.777 26.589-20.835 5.425-25.617 32.829-7.865 44.985l26.347 18.043c3.197 2.189 4.57 6.145 3.418 9.844l-11.942 38.333c-5.537 17.774 11.157 34.526 28.941 29.039 11.244-3.471 22.622-7.435 33.818-11.782 3.861-1.499 5.776-5.845 4.277-9.706-1.497-3.859-5.845-5.775-9.705-4.275zm118.95-204.793c-36.883-31.721-66.361-72.561-77.634-119.278 14.203-19.648 44.219-32.2 77.624-32.2 33.402 0 63.416 12.55 77.62 32.195-11.396 47.336-40.983 87.809-77.61 119.283zm-45.032-249.261c28.034-22.668 70.02-22.842 98.71 8.119 20.336 21.946 33.127 58.84 27.383 103.231-40.164-38.053-121.972-38.065-162.146.002-6.679-51.51 11.501-91.5 36.053-111.352zm-125.115 137.814c0-72.883 45.799-124.201 110.315-144.703-54.53 51.142-58.926 172.214 48.049 265.781-24.79 19.335-51.79 34.852-80.292 47.813-50.379-57.753-78.072-117.564-78.072-168.891zm356.365 201.76c-28.412-7.398-55.188-16.325-79.758-26.577 40.824-47.754 78.667-112.069 78.667-175.183 0-33.015-8.471-62.871-25.177-88.739-2.248-3.48-6.891-4.479-10.369-2.231-3.479 2.247-4.478 6.89-2.231 10.369 15.114 23.403 22.778 50.521 22.778 80.601 0 49.598-26.239 107.862-73.884 164.061-47.91 56.511-113.04 105.729-183.392 138.587-3.753 1.753-5.375 6.216-3.622 9.969 1.756 3.759 6.222 5.372 9.969 3.621 27.97-13.064 55.135-28.66 80.793-46.23 46.166 31.61 96.998 56.461 147.328 71.996 17.769 5.482 34.481-11.252 28.94-29.039l-11.942-38.333c-1.152-3.699.221-7.655 3.418-9.844l26.347-18.043c17.764-12.164 12.956-39.563-7.865-44.985zm-.61 32.61-26.347 18.042c-8.664 5.934-12.387 16.657-9.264 26.682l11.942 38.333c1.958 6.284-3.916 12.182-10.195 10.245-47.232-14.579-94.948-37.639-138.636-66.914 30.458-22.115 58.505-47.007 82.874-73.717 26.496 11.36 55.55 21.188 86.456 29.235 8.368 2.18 10.356 13.173 3.17 18.094z"/></g></svg>