<svg id="Layer_1" enable-background="new 0 0 512.414 512.414" height="512" viewBox="0 0 512.414 512.414" width="512" xmlns="http://www.w3.org/2000/svg"><g><path d="m285.606 115.132c-37.95-8.306-75.448 15.727-83.753 53.676l-30.522 139.462c-2.954 13.498 5.593 26.834 19.091 29.788l112.99 24.728 35.87-163.901c8.306-37.95-15.726-75.447-53.676-83.753z" fill="#64afff"/><g id="XMLID_5269_"><path d="m389.987 472.97-34.728-132.084h-118.653c-14.579 0-26.398-11.819-26.398-26.398s11.819-26.399 26.398-26.399h139.008c11.995 0 22.481 8.086 25.531 19.686l39.904 151.77c3.707 14.1-4.718 28.536-18.818 32.243-14.071 3.7-28.528-4.689-32.244-18.818z" fill="#5f6e9b"/></g><g id="XMLID_5262_"><path d="m364.649 287.686h-90.373c-11.632 0-21.496-8.545-23.156-20.057l-6.425-44.571 21.478-21.471 24.808 14.613 3.56 24.696h70.108c12.921 0 23.395 10.475 23.395 23.395s-10.475 23.395-23.395 23.395z" fill="#ffb69e"/></g><g id="XMLID_387_"><path d="m244.694 223.057 46.286-6.858-9.249-64.162c-1.844-12.789-13.714-21.663-26.494-19.818-12.789 1.844-21.662 13.705-19.819 26.494z" fill="#4699f2"/></g><g><circle cx="401.586" cy="469.313" fill="#a5c8cd" r="30.409"/><path d="m401.586 512.414c-23.766 0-43.101-19.335-43.101-43.101s19.335-43.101 43.101-43.101 43.101 19.335 43.101 43.101-19.335 43.101-43.101 43.101zm0-60.819c-9.77 0-17.718 7.948-17.718 17.718s7.948 17.718 17.718 17.718 17.718-7.948 17.718-17.718c0-9.769-7.948-17.718-17.718-17.718z" fill="#3c5a73"/></g><ellipse cx="346.793" cy="56.328" fill="#ffb69e" rx="56.325" ry="56.325" transform="matrix(.113 -.994 .994 .113 251.554 394.511)"/><g id="XMLID_5265_"><path d="m316.334 377.297h-161.67c-8.74 0-16.182-6.356-17.549-14.988l-24.115-152.25c-2.157-13.611-13.724-23.491-27.505-23.491-9.813 0-17.768-7.955-17.768-17.768s7.955-17.768 17.768-17.768c31.368 0 57.697 22.486 62.603 53.468l21.741 137.26h146.495c9.813 0 17.768 7.955 17.768 17.768.001 9.814-7.954 17.769-17.768 17.769z" fill="#a5c8cd"/></g><g><ellipse cx="245.409" cy="391.376" fill="#6c9baa" rx="105.808" ry="105.808" transform="matrix(.707 -.707 .707 .707 -204.866 288.162)"/><g><path d="m245.409 512.414c-66.741 0-121.038-54.297-121.038-121.038s54.297-121.038 121.038-121.038 121.038 54.297 121.038 121.038-54.297 121.038-121.038 121.038zm0-211.615c-49.945 0-90.578 40.633-90.578 90.578s40.633 90.578 90.578 90.578 90.578-40.633 90.578-90.578-40.632-90.578-90.578-90.578z" fill="#3c5a73"/></g><ellipse cx="245.409" cy="391.376" fill="#a5c8cd" rx="26.104" ry="26.104" transform="matrix(.924 -.383 .383 .924 -131.093 123.706)"/></g></g></svg>