<svg height="512" viewBox="0 0 512 512" width="512" xmlns="http://www.w3.org/2000/svg"><g id="Flat"><g><circle cx="256" cy="200" fill="#fef4dc" r="176"/><g fill="#ffd4cf"><path d="m320.0248 496v-32.5593l-15.5323-56.9519a60 60 0 0 1 12.7136-55.2771l46.1914-52.8377a40 40 0 0 1 48.4724-9.212l12.1549 6.2787v-135.3507a40 40 0 0 1 40.0895-40l7.9105.0177 15.126 189.0794a29.9993 29.9993 0 0 1 -5.5007 19.841l-73.6253 102.9719v64z"/><path d="m192 497v-32.5593l15.5323-56.9519a60 60 0 0 0 -12.7136-55.2771l-46.1913-52.8377a40 40 0 0 0 -48.4724-9.212l-12.155 6.2787v-135.3507a40 40 0 0 0 -40.0894-40l-7.9106.0173-15.126 189.0794a30 30 0 0 0 5.5008 19.841l73.6252 102.9723v64"/></g><g><path d="m255.8162 328-109.7023-109.8644a61.8925 61.8925 0 0 1 87.4651-87.5934l22.2372 22.2706 22.2373-22.2706a61.8925 61.8925 0 0 1 87.4651 87.5934z" fill="#fa5d3f"/><path d="m279.7568 263.6c-.1836 0-.3672-.0058-.5517-.0185a8 8 0 0 1 -6.4239-4.0635l-33.2871-59.25-16.8964 27.8789a8 8 0 0 1 -6.8418 3.8531h-32v-16h27.4941l21.6641-35.7461a8.0009 8.0009 0 0 1 6.8408-3.8535c.0449 0 .0889 0 .1328.001a7.9992 7.9992 0 0 1 6.8428 4.081l34.0283 60.5694 16.626-21.8907a8.0018 8.0018 0 0 1 6.3711-3.1611h24v16h-20.03l-21.5989 28.4385a8.0013 8.0013 0 0 1 -6.3702 3.1615z" fill="#fff9f8"/></g></g></g></svg>