<?xml version="1.0" standalone="no"?><svg xmlns="http://www.w3.org/2000/svg" viewBox="0 0 1440 320"><path fill="#1ebeb6" fill-opacity="1" d="M0,32L34.3,80C68.6,128,137,224,206,250.7C274.3,277,343,235,411,218.7C480,203,549,213,617,229.3C685.7,245,754,267,823,240C891.4,213,960,139,1029,144C1097.1,149,1166,235,1234,256C1302.9,277,1371,235,1406,213.3L1440,192L1440,320L1405.7,320C1371.4,320,1303,320,1234,320C1165.7,320,1097,320,1029,320C960,320,891,320,823,320C754.3,320,686,320,617,320C548.6,320,480,320,411,320C342.9,320,274,320,206,320C137.1,320,69,320,34,320L0,320Z"></path></svg>