<?xml version="1.0" standalone="no"?>
<svg viewBox="0 0 200 200" xmlns="http://www.w3.org/2000/svg">
  <path fill="#E22454" d="M29.5,-47.9C41.6,-44,57.3,-43.1,62.2,-35.6C67.2,-28.1,61.4,-14,61.5,0.1C61.7,14.2,67.8,28.4,64.8,39.3C61.8,50.1,49.6,57.6,37.3,59.2C25,60.8,12.5,56.6,-1.6,59.4C-15.7,62.1,-31.4,71.8,-44.3,70.5C-57.2,69.2,-67.4,57,-68.9,43.4C-70.4,29.8,-63.2,14.9,-62,0.7C-60.7,-13.4,-65.3,-26.9,-63.9,-40.6C-62.4,-54.4,-55,-68.5,-43.4,-72.7C-31.8,-76.9,-15.9,-71.4,-3.6,-65.1C8.6,-58.8,17.3,-51.9,29.5,-47.9Z" transform="translate(100 100)" />
</svg>
